<?xml version="1.0" standalone="no"?>
<!DOCTYPE svg PUBLIC "-//W3C//DTD SVG 20010904//EN"
 "http://www.w3.org/TR/2001/REC-SVG-20010904/DTD/svg10.dtd">
<svg version="1.0" xmlns="http://www.w3.org/2000/svg"
 width="2100.000000pt" height="2100.000000pt" viewBox="0 0 2100.000000 2100.000000"
 preserveAspectRatio="xMidYMid meet">
<metadata>
Created by potrace 1.11, written by Peter Selinger 2001-2013
</metadata>
<g transform="translate(0.000000,2100.000000) scale(0.100000,-0.100000)"
fill="#000000" stroke="none">
<path d="M10300 17798 c-123 -381 -227 -696 -232 -699 -4 -3 -81 -11 -171 -17
-324 -24 -717 -85 -1066 -167 -1605 -375 -3038 -1288 -4072 -2595 -426 -539
-797 -1176 -1040 -1790 l-57 -145 -763 -5 -764 -5 610 -444 c336 -244 616
-449 623 -456 11 -10 10 -27 -6 -96 -21 -86 -88 -450 -94 -504 l-3 -30 -1387
-3 -1388 -2 0 -1880 0 -1880 1612 -2 1612 -3 24 -60 c134 -339 384 -814 611
-1168 367 -570 848 -1127 1352 -1563 93 -81 169 -152 169 -158 0 -6 -119 -378
-265 -826 -145 -448 -262 -816 -260 -818 1 -2 316 225 699 505 383 279 702
512 709 517 8 5 54 -16 132 -61 809 -468 1775 -789 2720 -903 451 -54 1017
-68 1430 -35 1130 90 2138 398 3097 946 l137 79 721 -526 c397 -289 723 -524
724 -523 2 2 -120 383 -270 847 l-273 843 32 28 c497 429 878 839 1226 1320
322 446 634 1003 827 1476 l32 80 1611 3 1611 2 0 1880 0 1880 -1385 0 -1385
0 -4 23 c-3 12 -19 105 -36 207 -18 102 -41 225 -52 274 -13 56 -17 91 -10 95
5 3 296 215 647 471 l638 465 -791 3 -790 2 -51 129 c-245 621 -617 1264
-1044 1806 -350 443 -795 888 -1232 1231 -744 583 -1587 1016 -2484 1275 -452
130 -954 223 -1406 260 -77 6 -140 12 -140 13 -1 0 -70 215 -154 476 -84 261
-185 575 -224 697 -40 123 -74 223 -78 223 -3 0 -106 -312 -229 -692z m-561
-1730 c0 -7 -91 -294 -203 -638 l-203 -625 -59 -29 c-32 -16 -68 -32 -79 -36
-30 -12 -82 -34 -160 -69 -38 -18 -79 -36 -90 -41 -11 -4 -46 -20 -77 -34 -31
-14 -59 -26 -62 -26 -5 0 -144 -63 -178 -81 -10 -5 -25 -9 -33 -9 -8 0 -15 -4
-15 -10 0 -5 -5 -10 -10 -10 -6 0 -70 -29 -143 -64 -187 -90 -265 -126 -270
-126 -3 0 -44 -18 -91 -40 -47 -22 -119 -53 -159 -69 -70 -28 -254 -112 -289
-131 -10 -6 -25 -10 -33 -10 -8 0 -15 -4 -15 -10 0 -5 -5 -10 -11 -10 -6 0
-39 -13 -73 -29 -95 -46 -564 -262 -623 -287 -18 -8 -48 -20 -65 -28 -18 -8
-50 -20 -70 -27 -21 -7 -38 -17 -38 -21 0 -4 -7 -8 -15 -8 -9 0 -80 -31 -160
-70 -80 -38 -149 -70 -155 -70 -7 0 -10 -181 -10 -540 l0 -540 -835 0 c-459 0
-835 4 -835 8 0 16 219 441 290 561 631 1079 1543 1940 2645 2494 627 315
1309 529 1983 621 128 18 142 18 141 4z m1841 -40 c812 -138 1598 -443 2312
-894 866 -549 1593 -1309 2110 -2204 83 -143 278 -524 278 -542 0 -4 -378 -8
-840 -8 l-840 0 2 555 c2 382 0 555 -7 555 -6 0 -40 15 -76 33 -81 40 -183 83
-188 79 -2 -2 -7 0 -10 5 -8 11 -199 93 -217 93 -8 0 -14 5 -14 10 0 6 -4 10
-10 10 -5 0 -33 11 -62 24 -29 13 -91 40 -138 61 -47 21 -116 53 -154 72 -38
18 -75 33 -83 33 -7 0 -13 5 -13 10 0 6 -9 10 -19 10 -11 0 -23 5 -26 10 -3 6
-15 10 -26 10 -10 0 -19 5 -19 10 0 6 -7 10 -15 10 -8 0 -36 11 -63 24 -26 13
-63 31 -82 39 -19 8 -62 27 -95 42 -197 89 -234 105 -241 105 -5 0 -36 13 -69
29 -33 16 -78 36 -100 46 -22 9 -48 21 -57 26 -10 5 -25 9 -33 9 -8 0 -15 5
-15 10 0 6 -11 10 -25 10 -14 0 -25 5 -25 10 0 6 -9 10 -20 10 -11 0 -20 5
-20 10 0 6 -7 10 -15 10 -8 0 -23 4 -33 9 -93 49 -206 101 -218 101 -8 0 -14
5 -14 10 0 6 -11 10 -24 10 -13 0 -26 3 -28 8 -4 8 -148 74 -165 75 -7 0 -13
4 -13 9 0 4 -6 8 -14 8 -12 0 -83 30 -201 85 -99 46 -119 54 -127 49 -4 -3 -8
0 -8 5 0 6 -9 11 -20 11 -11 0 -20 5 -20 10 0 6 -9 10 -20 10 -13 0 -22 10
-28 33 -5 17 -100 311 -211 653 -110 341 -201 623 -201 627 0 9 31 4 260 -35z
m-543 -1181 c287 -124 542 -235 567 -246 25 -12 47 -21 50 -21 2 0 35 -14 73
-31 113 -50 139 -62 465 -202 145 -63 284 -124 310 -136 26 -11 49 -21 52 -21
3 0 29 -11 58 -24 29 -14 81 -36 116 -51 34 -14 91 -38 125 -54 34 -16 172
-76 307 -134 345 -148 919 -396 955 -412 81 -37 124 -55 129 -55 2 0 33 -13
68 -29 35 -15 78 -35 96 -42 l32 -14 0 -667 0 -667 -107 45 c-60 25 -144 60
-188 79 -90 36 -529 221 -560 235 -11 5 -96 41 -190 80 -93 39 -190 79 -215
90 -25 11 -115 48 -200 84 -243 101 -613 256 -635 266 -46 21 -405 170 -409
170 -3 0 -29 11 -58 24 -29 14 -125 55 -213 91 -88 36 -184 77 -213 91 -29 13
-55 24 -57 24 -5 0 -430 177 -480 200 -114 52 -409 170 -424 170 -16 0 -102
-32 -186 -70 -11 -5 -42 -18 -70 -30 -27 -12 -59 -25 -70 -30 -81 -35 -405
-170 -409 -170 -3 0 -29 -11 -58 -24 -29 -14 -109 -48 -178 -76 -69 -28 -134
-55 -145 -60 -85 -38 -386 -164 -525 -220 -58 -24 -130 -54 -160 -67 -30 -14
-75 -33 -100 -43 -42 -17 -412 -171 -455 -190 -38 -17 -91 -39 -320 -135 -126
-53 -239 -100 -250 -105 -61 -27 -99 -42 -180 -75 -49 -20 -110 -45 -134 -56
-23 -11 -92 -40 -151 -64 -59 -24 -128 -53 -151 -64 -24 -11 -84 -36 -134 -56
-49 -20 -99 -40 -110 -45 -11 -5 -42 -18 -70 -30 -27 -11 -58 -25 -67 -30 -10
-6 -20 -10 -23 -10 -3 0 -5 294 -5 653 l0 653 113 49 c61 27 144 63 184 81 39
19 116 52 170 75 54 23 103 45 108 49 6 4 21 11 35 15 13 4 56 22 95 40 38 18
120 54 180 80 61 26 139 61 175 77 36 17 108 48 160 70 52 22 100 44 105 48 6
3 26 13 45 20 19 7 58 24 85 36 28 12 93 41 145 64 52 23 109 48 125 55 32 15
68 30 215 95 52 23 118 52 145 64 28 12 66 29 85 36 19 7 40 17 45 20 6 4 53
26 105 48 52 22 121 52 152 66 31 14 144 64 250 110 106 46 223 98 261 115 37
17 70 31 72 31 2 0 35 14 72 31 37 17 108 48 158 70 49 21 114 50 142 64 29
14 56 25 59 25 3 0 35 14 71 30 35 17 66 30 68 30 2 0 36 15 77 33 40 19 93
42 118 53 25 10 61 27 80 36 19 10 44 16 55 14 11 -2 255 -105 542 -229z
m-509 -1667 c9 -5 40 -19 67 -30 28 -12 64 -28 80 -35 17 -7 167 -73 335 -145
168 -72 319 -138 335 -145 17 -8 58 -25 92 -39 35 -15 86 -37 115 -50 29 -13
100 -44 158 -69 121 -52 261 -113 305 -132 17 -7 194 -84 395 -170 201 -87
388 -168 417 -181 28 -13 54 -24 57 -24 2 0 35 -14 73 -31 113 -51 139 -62
470 -205 147 -63 282 -122 298 -129 17 -8 91 -39 165 -71 74 -31 158 -67 185
-79 103 -46 281 -124 323 -140 l42 -17 0 -324 0 -324 -832 2 -833 3 -55 27
c-30 15 -127 57 -215 93 -88 36 -169 70 -180 75 -11 5 -123 52 -250 105 -126
53 -239 100 -250 105 -65 28 -120 51 -405 171 -173 72 -351 146 -395 164 -116
48 -487 204 -510 216 -19 9 -106 -20 -245 -84 -19 -8 -91 -38 -160 -67 -69
-28 -134 -55 -145 -60 -71 -32 -136 -60 -140 -60 -3 0 -312 -128 -360 -150
-11 -5 -42 -18 -70 -30 -27 -12 -59 -25 -70 -30 -76 -33 -405 -170 -409 -170
-3 0 -35 -14 -73 -31 -37 -16 -77 -34 -88 -39 -11 -5 -60 -25 -110 -45 -49
-20 -99 -40 -110 -45 -11 -5 -42 -18 -70 -30 -27 -12 -59 -25 -70 -30 -11 -5
-64 -27 -117 -49 l-98 -41 -820 0 -820 0 2 311 3 311 65 27 c36 16 92 40 125
56 33 15 103 45 155 67 52 22 100 44 105 48 6 3 26 13 45 20 19 7 58 24 85 36
50 22 200 88 285 125 25 11 54 24 65 29 11 5 55 25 98 44 44 20 80 36 82 36 2
0 33 14 68 30 36 17 68 30 71 30 3 0 38 15 78 34 95 44 396 176 401 176 3 0
43 17 89 39 45 21 128 58 183 81 55 23 105 46 110 50 6 4 21 11 35 15 13 4 56
22 95 40 38 18 104 47 145 65 41 17 93 40 115 50 22 10 56 25 75 33 19 9 66
29 103 46 38 17 70 31 72 31 2 0 37 16 78 35 41 19 77 35 80 35 3 0 39 16 81
35 41 19 119 53 173 76 54 23 103 45 108 49 6 3 26 13 45 20 19 7 58 24 85 36
28 12 93 41 145 64 52 23 113 50 135 59 22 10 65 29 94 42 30 13 75 34 100 46
51 24 83 28 109 13z m-1859 -422 c0 -7 -17 -60 -37 -118 l-37 -105 -55 -28
c-30 -15 -100 -49 -155 -75 l-100 -47 -270 -2 c-154 -1 -259 2 -243 7 14 4 39
15 55 23 29 16 42 21 188 82 110 45 131 55 220 94 39 18 79 36 90 41 114 51
154 67 159 62 3 -3 6 0 6 6 0 7 8 12 18 12 9 0 44 14 77 30 67 32 85 36 84 18z
m3769 -48 c20 -12 363 -161 377 -164 6 -1 28 -11 50 -21 22 -10 49 -21 60 -25
11 -4 43 -18 70 -30 28 -12 59 -26 70 -30 11 -4 45 -20 75 -34 l55 -26 -254 3
c-193 1 -255 5 -259 15 -2 6 -10 12 -18 12 -8 0 -22 4 -32 9 -73 36 -106 51
-116 51 -30 0 -57 54 -101 203 -14 48 -10 55 23 37z m7782 -3745 l0 -1575
-9715 0 -9715 0 0 1575 0 1575 9715 0 9715 0 0 -1575z m-13392 -1897 c-3 -7
-146 -451 -319 -985 -173 -535 -318 -973 -322 -973 -14 0 -377 368 -488 495
-286 326 -533 671 -746 1043 -83 144 -223 413 -223 427 0 3 473 5 1051 5 837
0 1050 -3 1047 -12z m9402 7 c0 -14 -152 -306 -223 -430 -227 -394 -472 -733
-776 -1073 -155 -175 -377 -399 -386 -390 -5 5 -615 1881 -615 1893 0 3 450 5
1000 5 550 0 1000 -2 1000 -5z m-4251 -1874 l1433 -1045 -78 -40 c-719 -364
-1555 -594 -2394 -657 -205 -15 -726 -16 -920 0 -669 53 -1288 194 -1885 431
-163 65 -375 158 -479 212 l-50 25 88 64 c2140 1562 2833 2065 2841 2060 6 -3
655 -475 1444 -1050z"/>
<path d="M1040 8965 l0 -1325 9465 0 9465 0 0 1325 0 1325 -9465 0 -9465 0 0
-1325z m14852 1008 l28 -27 0 -346 c0 -378 -1 -382 -58 -395 -37 -8 -77 8 -97
39 -9 14 -32 71 -51 126 -61 181 -136 302 -235 380 -43 34 -141 80 -169 80 -6
0 -10 37 -10 86 l0 86 33 -7 c17 -4 74 -25 126 -47 51 -22 121 -44 154 -50 53
-9 65 -8 95 8 18 10 42 35 53 55 10 20 24 40 31 43 25 10 72 -5 100 -31z
m-4462 -50 l-1 -78 -61 -30 c-116 -56 -156 -158 -106 -267 14 -29 36 -64 50
-78 47 -46 171 -112 303 -162 208 -78 332 -155 451 -280 77 -80 107 -129 141
-225 22 -65 27 -96 27 -183 1 -126 -13 -188 -65 -296 -65 -132 -170 -234 -339
-326 -76 -42 -162 -65 -278 -74 l-83 -7 3 83 3 82 69 26 c88 32 159 97 176
160 19 73 -2 145 -59 201 -47 47 -66 57 -381 209 -190 92 -359 200 -420 269
-96 110 -134 233 -127 418 4 138 24 212 84 315 108 184 336 313 566 319 l47 1
0 -77z m284 50 c21 -7 46 -13 55 -13 9 0 48 -13 86 -30 96 -40 110 -39 162 16
53 57 80 55 118 -9 l25 -44 0 -276 c0 -237 -2 -278 -16 -291 -25 -26 -63 -30
-100 -13 -38 18 -54 46 -79 132 -43 151 -143 274 -280 342 -44 21 -90 42 -103
45 -20 6 -22 12 -22 87 l0 81 58 -6 c31 -4 74 -13 96 -21z m3456 -56 l0 -84
-40 -13 c-49 -16 -85 -53 -105 -109 -13 -38 -15 -140 -15 -760 0 -688 1 -718
20 -759 15 -33 29 -47 62 -62 24 -11 51 -20 61 -20 15 0 17 -11 17 -96 l0 -97
-87 6 c-93 6 -236 43 -306 79 -280 142 -459 439 -485 806 -21 299 43 588 179
809 65 104 202 247 279 291 103 57 224 89 353 91 l67 1 0 -83z m-9128 41 c74
-22 71 -72 -11 -162 -70 -76 -80 -20 119 -693 99 -334 180 -615 180 -623 0 -8
-31 -127 -68 -265 l-68 -250 -204 0 -203 0 -263 875 c-145 481 -270 890 -278
907 -9 20 -36 46 -66 64 -59 36 -72 68 -43 107 10 14 37 31 59 38 55 17 790
19 846 2z m829 -11 c36 -24 44 -44 35 -83 -5 -17 -26 -34 -75 -58 -79 -40
-128 -92 -170 -181 -16 -34 -81 -248 -145 -476 -64 -227 -120 -422 -124 -433
-6 -14 -18 18 -45 114 l-37 133 90 330 c50 182 90 348 90 370 0 62 -56 131
-118 143 -42 8 -75 49 -67 84 17 68 54 78 321 79 204 1 212 0 245 -22z m1029
-982 l0 -1006 -391 3 -391 3 -24 28 c-14 16 -24 41 -24 58 0 25 9 35 58 65
101 64 92 -27 92 860 l0 781 -22 20 c-13 11 -44 30 -70 41 -67 29 -78 60 -39
106 37 43 58 45 444 46 l367 0 0 -1005z m740 725 l0 -281 -25 -24 c-26 -27
-51 -31 -89 -14 -25 12 -33 25 -85 142 -59 131 -180 228 -344 272 l-67 18 0
83 0 84 305 0 305 0 0 -280z m590 194 l0 -85 -49 -50 c-88 -90 -124 -178 -156
-391 -5 -29 -14 -44 -43 -63 -47 -32 -82 -32 -113 1 l-24 26 -3 324 -3 324
195 0 196 0 0 -86z m802 -801 c2 -677 6 -893 15 -909 12 -22 79 -54 110 -54
25 0 63 -40 63 -66 0 -28 -49 -70 -98 -84 -56 -15 -860 -13 -891 3 -14 6 -34
27 -44 45 -29 49 -13 75 68 111 113 52 105 -29 105 979 l0 862 335 0 334 0 3
-887z m518 585 c0 -179 -4 -318 -10 -340 -31 -110 -180 -50 -180 72 0 47 -30
170 -53 215 -33 66 -77 123 -118 151 l-39 27 0 88 0 89 200 0 200 0 0 -302z
m2790 -703 l0 -1006 -389 3 -389 3 -26 24 c-18 17 -26 35 -26 58 0 30 6 38 61
73 34 22 68 48 75 57 11 15 13 161 14 799 l0 781 -22 20 c-13 11 -44 30 -70
41 -61 26 -77 55 -51 91 44 60 53 61 456 61 l367 0 0 -1005z m740 725 l0 -281
-25 -24 c-26 -27 -51 -31 -89 -14 -25 12 -33 25 -85 142 -59 131 -180 228
-344 272 l-67 18 0 83 0 84 305 0 305 0 0 -280z m-5737 -336 c36 -35 39 -76
35 -427 l-3 -299 -28 -24 c-31 -26 -72 -31 -99 -10 -9 7 -40 60 -68 119 -55
115 -90 164 -127 178 -22 8 -23 13 -23 97 l0 88 34 16 c67 33 103 75 136 161
49 127 89 155 143 101z m5443 -5 l29 -30 0 -346 0 -345 -28 -24 c-31 -26 -72
-31 -99 -10 -9 7 -40 60 -68 119 -55 115 -90 164 -127 178 -22 8 -23 13 -23
97 l0 88 34 16 c67 33 103 75 136 161 50 130 89 156 146 96z m-2929 -675 c13
-8 27 -32 34 -56 49 -185 140 -338 252 -423 27 -20 86 -54 133 -76 l84 -39 0
-80 c0 -44 -3 -80 -7 -80 -11 0 -186 54 -257 79 -33 12 -83 21 -112 21 -44 0
-59 -5 -96 -33 -78 -60 -106 -59 -138 3 -19 37 -20 59 -20 347 1 321 1 326 45
351 22 12 47 8 82 -14z m-2236 -113 c23 -23 29 -94 29 -337 l0 -264 -310 0
-310 0 0 80 c0 79 0 80 28 86 143 32 201 62 287 148 53 54 84 96 123 171 54
104 89 139 127 129 11 -4 23 -9 26 -13z m5429 9 c4 0 15 -18 24 -40 13 -34 16
-85 16 -305 l0 -265 -310 0 -310 0 0 80 c0 79 0 80 28 86 84 19 113 29 175 61
92 48 168 133 235 258 51 98 90 140 120 130 8 -3 17 -5 22 -5z m1829 -39 c31
-17 46 -85 33 -149 -41 -197 -242 -373 -500 -438 -52 -13 -98 -24 -103 -24 -5
0 -9 40 -9 90 0 100 -8 90 84 105 83 14 210 95 276 176 19 24 53 81 76 128 51
105 94 138 143 112z"/>
</g>
</svg>
